# xmcd
#
# Track frame offsets:
#	150
#	19321
#	31700
#	39261
#	55584
#	81517
#	97049
#	114444
#	130987
#	145765
#
# Disc length: 2165 seconds
#
# Revision: 1
# Processed by: cddbd v1.5.2PL0 Copyright (c) Steve Scherf et al.
# Submitted via: audiograbber 1.83.01
#
DISCID=7c08730a
DTITLE=The Black Swans of Trespass - Duttigalla Exile
DYEAR=1900
DGENRE=Bluegrass
TTITLE0=Coal Town Killer
TTITLE1=Little Prisons
TTITLE2=Dinner with Jane
TTITLE3=Four Walls
TTITLE4=Lost
TTITLE5=My Detractors
TTITLE6=Bearbrass and Broken
TTITLE7=Kentucky Roma Novs
TTITLE8=Mainstreet
TTITLE9=Mia and Luka
EXTD=
EXTT0=
EXTT1=
EXTT2=
EXTT3=
EXTT4=
EXTT5=
EXTT6=
EXTT7=
EXTT8=
EXTT9=
PLAYORDER=
